# xmcd
#
# Track frame offsets:
#	150
#	13944
#	29772
#	43380
#	57475
#	71442
#	85308
#	102806
#	122368
#	136530
#	152039
#	164600
#	183494
#	197528
#	213147
#	225110
#	238051
#	252718
#	268590
#	278912
#
# Disc length: 3884 seconds
#
# Revision: 0
# Processed by: cddbd v1.4PL0 Copyright (c) Steve Scherf et al.
# Submitted via: dBpowerAMP V4.0
#
DISCID=1b0f2a14
DTITLE=Felipe e Falcão - As 20 Mais
DYEAR=1900
DGENRE=Country
TTITLE0=Eu bebo sim
TTITLE1=Porta do Mundo
TTITLE2=O papa tudo
TTITLE3=Meu Taxi é um cacete
TTITLE4=Paixão pra mais de mês
TTITLE5=O saco ficou de fora
TTITLE6=Deixa eu te amar por favor
TTITLE7=Amantes e inimigos
TTITLE8=O fim da picada
TTITLE9=Meu reino encantado
TTITLE10=Preciso te encantar
TTITLE11=Heroi sem medalha
TTITLE12=Que pena
TTITLE13=Grito de amor
TTITLE14=Droga de vida
TTITLE15=Vanerão da mulher feia 
TTITLE16=Hoje não é nosso dia
TTITLE17=Derramado de paixão
TTITLE18=Expresso Boiadeiro
TTITLE19=Vestido de seda
EXTD=Felipe e Falcão as 20 mais
EXTT0=
EXTT1=
EXTT2=
EXTT3=
EXTT4=
EXTT5=
EXTT6=
EXTT7=
EXTT8=
EXTT9=
EXTT10=
EXTT11=
EXTT12=
EXTT13=
EXTT14=
EXTT15=
EXTT16=
EXTT17=
EXTT18=
EXTT19=
PLAYORDER=
